<?xml version="1.0" encoding="utf-8"?>
<!-- Generator: Adobe Illustrator 17.0.0, SVG Export Plug-In . SVG Version: 6.00 Build 0)  -->
<!DOCTYPE svg PUBLIC "-//W3C//DTD SVG 1.1//EN" "http://www.w3.org/Graphics/SVG/1.1/DTD/svg11.dtd">
<svg version="1.1" id="Calque_1" xmlns="http://www.w3.org/2000/svg" xmlns:xlink="http://www.w3.org/1999/xlink" x="0px" y="0px"
	 width="500px" height="360.56px" viewBox="0 0 500 360.56" enable-background="new 0 0 500 360.56" xml:space="preserve">
<g>
	<path fill="#323232" d="M354.869,88.996c11.027-10.148,23.902-16.286,37.818-16.286c21.918,0,41.189,9.143,61.309,31.086
		L499,59.134C472.585,23.482,434.799,1,392.687,1c-28.842,0-58.962,9.437-78.201,28.657L172.121,172.273L1,1v358.56h72.261V173.259
		l98.028,98.27L354.869,88.996z"/>
	<path fill="#F58020" d="M383.766,287.847c-39.38,0-71.263-46.951-72.104-105.273l-62.373,61.9
		c20.861,67.17,72.976,115.086,134.476,115.086c47.125,0,88.853-28.106,115.235-71.403l-45.004-44.539
		C431.531,270.511,410.145,287.847,383.766,287.847z"/>
</g>
</svg>
