<?xml version="1.0" encoding="utf-8"?>
<!-- Generator: Adobe Illustrator 17.0.0, SVG Export Plug-In . SVG Version: 6.00 Build 0)  -->
<!DOCTYPE svg PUBLIC "-//W3C//DTD SVG 1.1//EN" "http://www.w3.org/Graphics/SVG/1.1/DTD/svg11.dtd">
<svg version="1.1" id="Calque_1" xmlns="http://www.w3.org/2000/svg" xmlns:xlink="http://www.w3.org/1999/xlink" x="0px" y="0px"
	 width="1000px" height="720px" viewBox="-399 -287 1000 720" enable-background="new -399 -287 1000 720" xml:space="preserve">
<g>
	<path fill="#FAFAFA" d="M311.159-109.791c22.101-20.323,47.899-32.614,75.788-32.614c43.922,0,82.545,18.309,122.864,62.247
		L600-169.589C547.066-240.98,471.338-286,386.947-286c-57.799,0-118.163,18.897-156.716,57.385L-55.072,56.965L-398-286v718h144.81
		V58.939l196.451,196.782L311.159-109.791z"/>
	<path fill="#F58020" d="M369.068,288.4c-78.917,0-142.814-94.018-144.495-210.803L99.578,201.547
		C141.384,336.052,245.825,432,369.068,432c94.441,0,178.063-56.283,230.932-142.982l-90.189-89.187
		C464.791,253.687,421.932,288.4,369.068,288.4z"/>
</g>
</svg>
