<svg xmlns="http://www.w3.org/2000/svg" xmlns:xlink="http://www.w3.org/1999/xlink" version="1.1" x="0px" y="0px" viewBox="0 0 96 120" enable-background="new 0 0 96 96" xml:space="preserve"><path d="M70.949,37.599c-2.322,1.202-4.754,2.232-7.273,3.064c-0.637,0.209-1.287,0.412-1.938,0.596  c-2.412,0.689-4.9,1.203-7.445,1.52c-0.984,0.123-1.982,0.223-2.984,0.283c-0.783,0.051-1.568,0.086-2.363,0.102  c-0.313,0.008-0.629,0.008-0.943,0.008c0,0,0,0-0.004,0c-0.314,0-0.631,0-0.943-0.008c-0.795-0.016-1.58-0.051-2.363-0.102  c-1.002-0.061-2-0.16-2.982-0.283c-2.547-0.316-5.033-0.83-7.445-1.52c-0.652-0.184-1.301-0.387-1.939-0.596  c-2.52-0.832-4.949-1.862-7.273-3.064c-0.826-0.428-1.641-0.88-2.439-1.355c-1.813-1.069-3.551-2.253-5.207-3.541l2.285,2.286  l3.996,3.996l3.795,3.794l3.73,3.734l4,3.998l5.762,5.763l7.025,7.023v-0.034l0.004,0.034l7.025-7.023l5.762-5.763l3.998-3.998  l3.73-3.734l3.797-3.794l3.996-3.996l2.285-2.286c-1.656,1.288-3.395,2.472-5.207,3.541C72.59,36.719,71.777,37.171,70.949,37.599z"/><text x="0" y="111" fill="#000000" font-size="5px" font-weight="bold" font-family="'Helvetica Neue', Helvetica, Arial-Unicode, Arial, Sans-serif">Created by faisalovers</text><text x="0" y="116" fill="#000000" font-size="5px" font-weight="bold" font-family="'Helvetica Neue', Helvetica, Arial-Unicode, Arial, Sans-serif">from the Noun Project</text></svg>