<?xml version="1.0" standalone="no"?>
<!DOCTYPE svg PUBLIC "-//W3C//DTD SVG 20010904//EN"
 "http://www.w3.org/TR/2001/REC-SVG-20010904/DTD/svg10.dtd">
<svg version="1.0" xmlns="http://www.w3.org/2000/svg"
 width="200.000000pt" height="200.000000pt" viewBox="0 0 200.000000 200.000000"
 preserveAspectRatio="xMidYMid meet">
<metadata>
Created by potrace 1.11, written by Peter Selinger 2001-2013
</metadata>
<g transform="translate(0.000000,200.000000) scale(0.100000,-0.100000)"
fill="#000000" stroke="none">
<path d="M0 1002 l0 -722 150 0 150 0 0 367 0 368 192 -192 192 -192 381 377
c242 241 395 385 420 397 86 41 202 15 287 -64 l44 -40 94 94 94 94 -71 69
c-168 165 -382 205 -578 108 -62 -31 -108 -71 -370 -326 l-299 -290 -136 132
c-74 73 -228 225 -342 338 l-208 205 0 -723z"/>
<path d="M1114 868 l-122 -123 14 -38 c47 -133 152 -270 259 -339 91 -59 176
-81 294 -76 92 3 105 7 182 45 88 44 177 120 226 194 l26 40 -88 89 -89 89
-67 -65 c-81 -77 -142 -108 -219 -108 -123 -1 -236 122 -271 294 -6 30 -14 70
-17 88 l-7 32 -121 -122z"/>
</g>
</svg>
